<svg width="22" height="22" viewBox="0 0 22 22" fill="none" xmlns="http://www.w3.org/2000/svg">
<path d="M17.2901 11.4569V9.10004C17.2901 6.16984 15.3063 3.70374 12.6127 2.96664C12.3488 2.29324 11.6936 1.82004 10.9201 1.82004C10.1466 1.82004 9.50052 2.29324 9.22752 2.96664C6.53392 3.71284 4.55012 6.17894 4.55012 9.10004V11.4569L2.99402 13.013C2.90968 13.0981 2.84295 13.1989 2.79767 13.3098C2.75238 13.4207 2.72943 13.5394 2.73012 13.6591V15.4791C2.73012 15.9796 3.13962 16.3891 3.64012 16.3891H18.2001C18.7006 16.3891 19.1101 15.9796 19.1101 15.4791V13.6591C19.1101 13.4134 19.01 13.1859 18.8462 13.013L17.2901 11.4569ZM17.2901 14.56H4.55012V14.0231L6.10622 12.467C6.19056 12.382 6.25728 12.2812 6.30257 12.1703C6.34786 12.0594 6.37081 11.9407 6.37012 11.8209V9.09094C6.37012 6.57934 8.40852 4.54094 10.9201 4.54094C13.4317 4.54094 15.4701 6.57934 15.4701 9.09094V11.8209C15.4701 12.0666 15.5702 12.2941 15.734 12.467L17.2901 14.0231V14.56ZM13.4863 18.2H8.35392C8.72702 19.2647 9.72802 20.02 10.9201 20.02C12.1122 20.02 13.1132 19.2647 13.4863 18.2Z" fill="white"/>
</svg>
