<svg width="100" height="29" viewBox="0 0 100 29" fill="none" xmlns="http://www.w3.org/2000/svg">
<path d="M100 13.0275H88.7744V16.7298H100V13.0275Z" fill="#0762C7"/>
<path d="M95.8099 1.18525L86.0883 6.76471L87.9505 9.97102L97.6722 4.39156L95.8099 1.18525Z" fill="#26D07C"/>
<path d="M87.9518 19.7856L86.0895 22.9919L95.8112 28.5714L97.6735 25.3651L87.9518 19.7856Z" fill="#FF9E1B"/>
<path d="M33.8795 15.6206C33.8795 18.3018 31.6933 20.4749 28.9961 20.4749C26.2989 20.4749 24.1127 18.3018 24.1127 15.6206V5.57953H20.3882V15.6206C20.3882 20.3469 24.2423 24.178 28.9968 24.178C33.7514 24.178 37.6047 20.3469 37.6047 15.6206V5.57953H33.8802V15.6206H33.8795Z" fill="white"/>
<path d="M9.35446 5.57947H5.63V9.2818H9.35446V9.29887C12.4547 9.29887 14.9673 11.7972 14.9673 14.8783C14.9673 17.9595 12.454 20.4578 9.35446 20.4578C6.25492 20.4578 3.74164 17.9602 3.74164 14.8783H3.72446V0H0V14.8783C0 20.0138 4.18832 24.1772 9.35446 24.1772C14.5206 24.1772 18.7089 20.0138 18.7089 14.8783C18.7089 9.7429 14.5213 5.57947 9.35446 5.57947Z" fill="white"/>
<path d="M55.3645 5.57947H51.64V9.2818H55.3645V9.29887C58.464 9.29887 60.9773 11.7972 60.9773 14.8783C60.9773 17.9595 58.4647 20.4578 55.3645 20.4578C52.2642 20.4578 49.7517 17.9602 49.7517 14.8783H49.7345V0H46.01V14.8783C46.01 20.0138 50.1983 24.1772 55.3645 24.1772C60.5306 24.1772 64.7189 20.0138 64.7189 14.8783C64.7189 9.7429 60.5306 5.57947 55.3645 5.57947Z" fill="white"/>
<path d="M43.6692 0H39.9448V23.4436H43.6692V0Z" fill="white"/>
<path d="M73.807 16.7299H84.8465C84.9682 16.1315 85.0327 15.5124 85.0327 14.8784C85.0327 9.74296 80.8443 5.57953 75.6782 5.57953C70.512 5.57953 66.3237 9.74296 66.3237 14.8784C66.3237 20.0138 70.512 24.178 75.6782 24.178H79.4027V20.4757H75.6782V20.4586C72.5786 20.4586 70.0654 17.9602 70.0654 14.8791C70.0654 11.798 72.5779 9.29965 75.6782 9.29965C78.1242 9.29965 80.1994 10.858 80.9682 13.0276H73.8077V16.7299H73.807Z" fill="white"/>
</svg>
