<svg width="4" height="16" viewBox="0 0 4 16" fill="none" xmlns="http://www.w3.org/2000/svg">
<path d="M1.94995 4.54998C1.23198 4.54998 0.649951 5.13201 0.649951 5.84998C0.649951 6.56795 1.23198 7.14998 1.94995 7.14998V5.84998V4.54998ZM0.65378 14.2003L0.554075 15.4964L3.14642 15.6959L3.24612 14.3997L1.94995 14.3L0.65378 14.2003ZM1.94995 5.84998V7.14998C1.19043 7.14998 0.899703 6.53703 0.894313 6.52625C0.845356 6.42834 0.845013 6.38082 0.859964 6.45856C0.885199 6.58978 0.910502 6.8399 0.92513 7.22025C0.953606 7.96062 0.935003 8.97614 0.894662 10.025C0.854616 11.0662 0.794405 12.1105 0.74402 12.8965C0.718862 13.289 0.69623 13.6159 0.679915 13.8443C0.671759 13.9585 0.665186 14.048 0.660671 14.1087C0.658414 14.139 0.656672 14.1622 0.655503 14.1776C0.654919 14.1853 0.654478 14.1911 0.654189 14.1949C0.654044 14.1968 0.653937 14.1982 0.653868 14.1991C0.653834 14.1996 0.65381 14.1999 0.653795 14.2001C0.653788 14.2002 0.653784 14.2002 0.65378 14.2003C0.653779 14.2003 0.65378 14.2003 1.94995 14.3C3.24612 14.3997 3.24613 14.3996 3.24614 14.3995C3.24614 14.3994 3.24615 14.3993 3.24617 14.3991C3.24619 14.3988 3.24623 14.3983 3.24627 14.3978C3.24636 14.3966 3.24649 14.3949 3.24665 14.3928C3.24698 14.3884 3.24746 14.3821 3.24809 14.3738C3.24934 14.3573 3.25117 14.333 3.25351 14.3015C3.2582 14.2384 3.26496 14.1464 3.27331 14.0295C3.29 13.7958 3.31307 13.4625 3.33869 13.0628C3.38987 12.2645 3.45154 11.1963 3.49274 10.1249C3.53365 9.06132 3.55567 7.96433 3.52321 7.12032C3.50737 6.70848 3.47681 6.29845 3.41318 5.96756C3.3837 5.81425 3.33067 5.58519 3.21982 5.3635C3.15254 5.22894 2.79073 4.54998 1.94995 4.54998V5.84998Z" fill="#08068D"/>
<circle cx="1.95" cy="1.95" r="1.95" fill="#08068D"/>
</svg>
