<svg width="96" height="70" viewBox="0 0 96 70" fill="none" xmlns="http://www.w3.org/2000/svg">
<path d="M49 20.8217L40.0935 31.5096C39.7446 31.9281 39.5702 32.1374 39.5676 32.3142C39.5653 32.4678 39.6337 32.614 39.7533 32.7106C39.8907 32.8217 40.1632 32.8217 40.708 32.8217H48L47 40.8217L55.9065 30.1339C56.2554 29.7153 56.4298 29.506 56.4324 29.3293C56.4347 29.1756 56.3663 29.0294 56.2467 28.9328C56.1093 28.8217 55.8368 28.8217 55.292 28.8217H48L49 20.8217Z" stroke="#C2CCD6" stroke-width="2" stroke-linecap="round" stroke-linejoin="round"/>
<path d="M18.9186 55.6337C18.9186 54.8177 19.1066 54.0857 19.4826 53.4377C19.8666 52.7897 20.3826 52.2857 21.0306 51.9257C21.6866 51.5577 22.4026 51.3737 23.1786 51.3737C24.0666 51.3737 24.8546 51.5937 25.5426 52.0337C26.2386 52.4657 26.7426 53.0817 27.0546 53.8817H25.4106C25.1946 53.4417 24.8946 53.1137 24.5106 52.8977C24.1266 52.6817 23.6826 52.5737 23.1786 52.5737C22.6266 52.5737 22.1346 52.6977 21.7026 52.9457C21.2706 53.1937 20.9306 53.5497 20.6826 54.0137C20.4426 54.4777 20.3226 55.0177 20.3226 55.6337C20.3226 56.2497 20.4426 56.7897 20.6826 57.2537C20.9306 57.7177 21.2706 58.0777 21.7026 58.3337C22.1346 58.5817 22.6266 58.7057 23.1786 58.7057C23.6826 58.7057 24.1266 58.5977 24.5106 58.3817C24.8946 58.1657 25.1946 57.8377 25.4106 57.3977H27.0546C26.7426 58.1977 26.2386 58.8137 25.5426 59.2457C24.8546 59.6777 24.0666 59.8937 23.1786 59.8937C22.3946 59.8937 21.6786 59.7137 21.0306 59.3537C20.3826 58.9857 19.8666 58.4777 19.4826 57.8297C19.1066 57.1817 18.9186 56.4497 18.9186 55.6337ZM31.5239 59.9297C30.8999 59.9297 30.3359 59.7897 29.8319 59.5097C29.3279 59.2217 28.9319 58.8217 28.6439 58.3097C28.3559 57.7897 28.2119 57.1897 28.2119 56.5097C28.2119 55.8377 28.3599 55.2417 28.6559 54.7217C28.9519 54.2017 29.3559 53.8017 29.8679 53.5217C30.3799 53.2417 30.9519 53.1017 31.5839 53.1017C32.2159 53.1017 32.7879 53.2417 33.2999 53.5217C33.8119 53.8017 34.2159 54.2017 34.5119 54.7217C34.8079 55.2417 34.9559 55.8377 34.9559 56.5097C34.9559 57.1817 34.8039 57.7777 34.4999 58.2977C34.1959 58.8177 33.7799 59.2217 33.2519 59.5097C32.7319 59.7897 32.1559 59.9297 31.5239 59.9297ZM31.5239 58.7417C31.8759 58.7417 32.2039 58.6577 32.5079 58.4897C32.8199 58.3217 33.0719 58.0697 33.2639 57.7337C33.4559 57.3977 33.5519 56.9897 33.5519 56.5097C33.5519 56.0297 33.4599 55.6257 33.2759 55.2977C33.0919 54.9617 32.8479 54.7097 32.5439 54.5417C32.2399 54.3737 31.9119 54.2897 31.5599 54.2897C31.2079 54.2897 30.8799 54.3737 30.5759 54.5417C30.2799 54.7097 30.0439 54.9617 29.8679 55.2977C29.6919 55.6257 29.6039 56.0297 29.6039 56.5097C29.6039 57.2217 29.7839 57.7737 30.1439 58.1657C30.5119 58.5497 30.9719 58.7417 31.5239 58.7417ZM39.6442 53.1017C40.1642 53.1017 40.6282 53.2097 41.0362 53.4257C41.4522 53.6417 41.7762 53.9617 42.0082 54.3857C42.2402 54.8097 42.3562 55.3217 42.3562 55.9217V59.8217H41.0002V56.1257C41.0002 55.5337 40.8522 55.0817 40.5562 54.7697C40.2602 54.4497 39.8562 54.2897 39.3442 54.2897C38.8322 54.2897 38.4242 54.4497 38.1202 54.7697C37.8242 55.0817 37.6762 55.5337 37.6762 56.1257V59.8217H36.3082V53.2097H37.6762V53.9657C37.9002 53.6937 38.1842 53.4817 38.5282 53.3297C38.8802 53.1777 39.2522 53.1017 39.6442 53.1017ZM46.5012 59.9297C45.9812 59.9297 45.5132 59.8377 45.0972 59.6537C44.6892 59.4617 44.3652 59.2057 44.1252 58.8857C43.8852 58.5577 43.7572 58.1937 43.7412 57.7937H45.1572C45.1812 58.0737 45.3132 58.3097 45.5532 58.5017C45.8012 58.6857 46.1092 58.7777 46.4772 58.7777C46.8612 58.7777 47.1572 58.7057 47.3652 58.5617C47.5812 58.4097 47.6892 58.2177 47.6892 57.9857C47.6892 57.7377 47.5692 57.5537 47.3292 57.4337C47.0972 57.3137 46.7252 57.1817 46.2132 57.0377C45.7172 56.9017 45.3132 56.7697 45.0012 56.6417C44.6892 56.5137 44.4172 56.3177 44.1852 56.0537C43.9612 55.7897 43.8492 55.4417 43.8492 55.0097C43.8492 54.6577 43.9532 54.3377 44.1612 54.0497C44.3692 53.7537 44.6652 53.5217 45.0492 53.3537C45.4412 53.1857 45.8892 53.1017 46.3932 53.1017C47.1452 53.1017 47.7492 53.2937 48.2052 53.6777C48.6692 54.0537 48.9172 54.5697 48.9492 55.2257H47.5812C47.5572 54.9297 47.4372 54.6937 47.2212 54.5177C47.0052 54.3417 46.7132 54.2537 46.3452 54.2537C45.9852 54.2537 45.7092 54.3217 45.5172 54.4577C45.3252 54.5937 45.2292 54.7737 45.2292 54.9977C45.2292 55.1737 45.2932 55.3217 45.4212 55.4417C45.5492 55.5617 45.7052 55.6577 45.8892 55.7297C46.0732 55.7937 46.3452 55.8777 46.7052 55.9817C47.1852 56.1097 47.5772 56.2417 47.8812 56.3777C48.1932 56.5057 48.4612 56.6977 48.6852 56.9537C48.9092 57.2097 49.0252 57.5497 49.0332 57.9737C49.0332 58.3497 48.9292 58.6857 48.7212 58.9817C48.5132 59.2777 48.2172 59.5097 47.8332 59.6777C47.4572 59.8457 47.0132 59.9297 46.5012 59.9297ZM56.4993 53.2097V59.8217H55.1313V59.0417C54.9153 59.3137 54.6313 59.5297 54.2793 59.6897C53.9353 59.8417 53.5673 59.9177 53.1753 59.9177C52.6553 59.9177 52.1873 59.8097 51.7713 59.5937C51.3633 59.3777 51.0393 59.0577 50.7993 58.6337C50.5673 58.2097 50.4513 57.6977 50.4513 57.0977V53.2097H51.8073V56.8937C51.8073 57.4857 51.9553 57.9417 52.2513 58.2617C52.5473 58.5737 52.9513 58.7297 53.4633 58.7297C53.9753 58.7297 54.3793 58.5737 54.6753 58.2617C54.9793 57.9417 55.1313 57.4857 55.1313 56.8937V53.2097H56.4993ZM66.3083 53.1017C66.8283 53.1017 67.2923 53.2097 67.7003 53.4257C68.1163 53.6417 68.4403 53.9617 68.6723 54.3857C68.9123 54.8097 69.0323 55.3217 69.0323 55.9217V59.8217H67.6763V56.1257C67.6763 55.5337 67.5283 55.0817 67.2323 54.7697C66.9363 54.4497 66.5323 54.2897 66.0203 54.2897C65.5083 54.2897 65.1003 54.4497 64.7963 54.7697C64.5003 55.0817 64.3523 55.5337 64.3523 56.1257V59.8217H62.9963V56.1257C62.9963 55.5337 62.8483 55.0817 62.5523 54.7697C62.2563 54.4497 61.8523 54.2897 61.3403 54.2897C60.8283 54.2897 60.4203 54.4497 60.1163 54.7697C59.8203 55.0817 59.6723 55.5337 59.6723 56.1257V59.8217H58.3043V53.2097H59.6723V53.9657C59.8963 53.6937 60.1803 53.4817 60.5243 53.3297C60.8683 53.1777 61.2363 53.1017 61.6283 53.1017C62.1563 53.1017 62.6283 53.2137 63.0443 53.4377C63.4603 53.6617 63.7803 53.9857 64.0043 54.4097C64.2043 54.0097 64.5163 53.6937 64.9403 53.4617C65.3643 53.2217 65.8203 53.1017 66.3083 53.1017ZM73.641 59.9297C73.017 59.9297 72.453 59.7897 71.949 59.5097C71.445 59.2217 71.049 58.8217 70.761 58.3097C70.473 57.7897 70.329 57.1897 70.329 56.5097C70.329 55.8377 70.477 55.2417 70.773 54.7217C71.069 54.2017 71.473 53.8017 71.985 53.5217C72.497 53.2417 73.069 53.1017 73.701 53.1017C74.333 53.1017 74.905 53.2417 75.417 53.5217C75.929 53.8017 76.333 54.2017 76.629 54.7217C76.925 55.2417 77.073 55.8377 77.073 56.5097C77.073 57.1817 76.921 57.7777 76.617 58.2977C76.313 58.8177 75.897 59.2217 75.369 59.5097C74.849 59.7897 74.273 59.9297 73.641 59.9297ZM73.641 58.7417C73.993 58.7417 74.321 58.6577 74.625 58.4897C74.937 58.3217 75.189 58.0697 75.381 57.7337C75.573 57.3977 75.669 56.9897 75.669 56.5097C75.669 56.0297 75.577 55.6257 75.393 55.2977C75.209 54.9617 74.965 54.7097 74.661 54.5417C74.357 54.3737 74.029 54.2897 73.677 54.2897C73.325 54.2897 72.997 54.3737 72.693 54.5417C72.397 54.7097 72.161 54.9617 71.985 55.2977C71.809 55.6257 71.721 56.0297 71.721 56.5097C71.721 57.2217 71.901 57.7737 72.261 58.1657C72.629 58.5497 73.089 58.7417 73.641 58.7417Z" fill="#C2CCD6"/>
</svg>
